<svg aria-roledescription="er" role="graphics-document document" viewBox="-144.48818969726562 0 483.4491882324219 1019.91796875" style="max-width: 483.449px; background-color: white;" xmlns:xlink="http://www.w3.org/1999/xlink" xmlns="http://www.w3.org/2000/svg" width="100%" id="my-svg"><style>#my-svg{font-family:"trebuchet ms",verdana,arial,sans-serif;font-size:16px;fill:#000000;}#my-svg .error-icon{fill:#552222;}#my-svg .error-text{fill:#552222;stroke:#552222;}#my-svg .edge-thickness-normal{stroke-width:1px;}#my-svg .edge-thickness-thick{stroke-width:3.5px;}#my-svg .edge-pattern-solid{stroke-dasharray:0;}#my-svg .edge-thickness-invisible{stroke-width:0;fill:none;}#my-svg .edge-pattern-dashed{stroke-dasharray:3;}#my-svg .edge-pattern-dotted{stroke-dasharray:2;}#my-svg .marker{fill:#000000;stroke:#000000;}#my-svg .marker.cross{stroke:#000000;}#my-svg svg{font-family:"trebuchet ms",verdana,arial,sans-serif;font-size:16px;}#my-svg p{margin:0;}#my-svg .entityBox{fill:#cde498;stroke:#13540c;}#my-svg .attributeBoxOdd{fill:#ffffff;stroke:#13540c;}#my-svg .attributeBoxEven{fill:#f2f2f2;stroke:#13540c;}#my-svg .relationshipLabelBox{fill:hsl(78.1578947368, 58.4615384615%, 84.5098039216%);opacity:0.7;background-color:hsl(78.1578947368, 58.4615384615%, 84.5098039216%);}#my-svg .relationshipLabelBox rect{opacity:0.5;}#my-svg .relationshipLine{stroke:#000000;}#my-svg .entityTitleText{text-anchor:middle;font-size:18px;fill:#000000;}#my-svg #MD_PARENT_START{fill:#f5f5f5!important;stroke:#000000!important;stroke-width:1;}#my-svg #MD_PARENT_END{fill:#f5f5f5!important;stroke:#000000!important;stroke-width:1;}#my-svg :root{--mermaid-font-family:"trebuchet ms",verdana,arial,sans-serif;}</style><g/><defs><marker orient="auto" markerHeight="240" markerWidth="190" refY="7" refX="0" id="MD_PARENT_START"><path d="M 18,7 L9,13 L1,7 L9,1 Z"/></marker></defs><defs><marker orient="auto" markerHeight="28" markerWidth="20" refY="7" refX="19" id="MD_PARENT_END"><path d="M 18,7 L9,13 L1,7 L9,1 Z"/></marker></defs><defs><marker orient="auto" markerHeight="18" markerWidth="18" refY="9" refX="0" id="ONLY_ONE_START"><path d="M9,0 L9,18 M15,0 L15,18" fill="none" stroke="gray"/></marker></defs><defs><marker orient="auto" markerHeight="18" markerWidth="18" refY="9" refX="18" id="ONLY_ONE_END"><path d="M3,0 L3,18 M9,0 L9,18" fill="none" stroke="gray"/></marker></defs><defs><marker orient="auto" markerHeight="18" markerWidth="30" refY="9" refX="0" id="ZERO_OR_ONE_START"><circle r="6" cy="9" cx="21" fill="white" stroke="gray"/><path d="M9,0 L9,18" fill="none" stroke="gray"/></marker></defs><defs><marker orient="auto" markerHeight="18" markerWidth="30" refY="9" refX="30" id="ZERO_OR_ONE_END"><circle r="6" cy="9" cx="9" fill="white" stroke="gray"/><path d="M21,0 L21,18" fill="none" stroke="gray"/></marker></defs><defs><marker orient="auto" markerHeight="36" markerWidth="45" refY="18" refX="18" id="ONE_OR_MORE_START"><path d="M0,18 Q 18,0 36,18 Q 18,36 0,18 M42,9 L42,27" fill="none" stroke="gray"/></marker></defs><defs><marker orient="auto" markerHeight="36" markerWidth="45" refY="18" refX="27" id="ONE_OR_MORE_END"><path d="M3,9 L3,27 M9,18 Q27,0 45,18 Q27,36 9,18" fill="none" stroke="gray"/></marker></defs><defs><marker orient="auto" markerHeight="36" markerWidth="57" refY="18" refX="18" id="ZERO_OR_MORE_START"><circle r="6" cy="18" cx="48" fill="white" stroke="gray"/><path d="M0,18 Q18,0 36,18 Q18,36 0,18" fill="none" stroke="gray"/></marker></defs><defs><marker orient="auto" markerHeight="36" markerWidth="57" refY="18" refX="39" id="ZERO_OR_MORE_END"><circle r="6" cy="18" cx="9" fill="white" stroke="gray"/><path d="M21,18 Q39,0 57,18 Q39,36 21,18" fill="none" stroke="gray"/></marker></defs><path style="stroke: gray; fill: none;" marker-start="url(#ZERO_OR_MORE_START)" marker-end="url(#ZERO_OR_MORE_END)" d="M58.587,202.551L55.637,210.884C52.688,219.217,46.789,235.884,48.602,252.551C50.414,269.217,59.938,285.884,64.7,294.217L69.462,302.551" class="er relationshipLine"/><path style="stroke: gray; fill: none;" marker-start="url(#ZERO_OR_MORE_START)" marker-end="url(#ZERO_OR_MORE_END)" d="M20,165.665L1.126,180.146C-17.749,194.627,-55.497,223.589,-74.372,252.653C-93.246,281.717,-93.246,310.884,-93.246,340.051C-93.246,369.217,-93.246,398.384,-93.246,430.967C-93.246,463.551,-93.246,499.551,-93.246,535.551C-93.246,571.551,-93.246,607.551,-93.246,645.415C-93.246,683.279,-93.246,723.007,-93.246,762.734C-93.246,802.462,-93.246,842.19,-59.849,872.511C-26.452,902.832,40.342,923.746,73.74,934.203L107.137,944.661" class="er relationshipLine"/><path style="stroke: gray; fill: none;" marker-start="url(#ZERO_OR_ONE_START)" marker-end="url(#ONLY_ONE_END)" d="M112.319,302.551L117.081,294.217C121.843,285.884,131.367,269.217,133.179,252.551C134.992,235.884,129.093,219.217,126.144,210.884L123.195,202.551" class="er relationshipLine"/><path style="stroke: gray; fill: none;" marker-start="url(#ZERO_OR_ONE_START)" marker-end="url(#ONLY_ONE_END)" d="M69.462,377.551L64.7,385.884C59.938,394.217,50.414,410.884,49.511,427.551C48.607,444.217,56.323,460.884,60.181,469.217L64.039,477.551" class="er relationshipLine"/><path style="stroke: gray; fill: none;" marker-start="url(#ZERO_OR_ONE_START)" marker-end="url(#ONLY_ONE_END)" d="M119.915,693.551L123.411,685.217C126.907,676.884,133.899,660.217,133.537,643.551C133.175,626.884,125.459,610.217,121.601,601.884L117.742,593.551" class="er relationshipLine"/><path style="stroke: gray; fill: none;" marker-start="url(#ZERO_OR_MORE_START)" marker-end="url(#ZERO_OR_MORE_END)" d="M90.891,831.918L90.891,840.251C90.891,848.585,90.891,865.251,99.238,881.918C107.584,898.585,124.278,915.251,132.625,923.585L140.972,931.918" class="er relationshipLine"/><path style="stroke: gray; fill: none;" marker-start="url(#ZERO_OR_MORE_START)" marker-end="url(#ZERO_OR_MORE_END)" d="M64.039,593.551L60.181,601.884C56.323,610.217,48.607,626.884,48.245,643.551C47.883,660.217,54.875,676.884,58.371,685.217L61.867,693.551" class="er relationshipLine"/><path style="stroke: gray; fill: none;" marker-start="url(#ZERO_OR_MORE_START)" marker-end="url(#ZERO_OR_MORE_END)" d="M117.742,477.551L121.601,469.217C125.459,460.884,133.175,444.217,132.271,427.551C131.367,410.884,121.843,394.217,117.081,385.884L112.319,377.551" class="er relationshipLine"/><path style="stroke: gray; fill: none;" marker-start="url(#ZERO_OR_ONE_START)" marker-end="url(#ONLY_ONE_END)" d="M215.504,931.918L225.424,923.585C235.345,915.251,255.186,898.585,265.107,870.387C275.027,842.19,275.027,802.462,275.027,762.734C275.027,723.007,275.027,683.279,275.027,645.415C275.027,607.551,275.027,571.551,275.027,535.551C275.027,499.551,275.027,463.551,275.027,430.967C275.027,398.384,275.027,369.217,275.027,340.051C275.027,310.884,275.027,281.717,256.153,252.653C237.279,223.589,199.53,194.627,180.656,180.146L161.781,165.665" class="er relationshipLine"/><path style="stroke: gray; fill: none;" marker-start="url(#ZERO_OR_ONE_START)" marker-end="url(#ONLY_ONE_END)" d="M242.918,937.404L264.936,928.156C286.954,918.909,330.991,900.413,315.863,875.584C300.734,850.755,226.441,819.592,189.295,804.011L152.148,788.429" class="er relationshipLine"/><g transform="translate(20,20 )" id="entity-User-818c511a-4a32-5484-ba70-875d765a9175"><rect height="182.55078220367432" width="141.78125" y="0" x="0" class="er entityBox"/><text style="dominant-baseline: middle; text-anchor: middle; font-size: 12px;" transform="translate(70.890625,12)" y="0" x="0" id="text-entity-User-818c511a-4a32-5484-ba70-875d765a9175" class="er entityLabel">User</text><rect height="26" width="36.53125" y="24" x="0" class="er attributeBoxOdd"/><text style="dominant-baseline: middle; font-size: 10.2px;" transform="translate(5,37)" y="0" x="0" id="text-entity-User-818c511a-4a32-5484-ba70-875d765a9175-attr-1-type" class="er entityLabel">Int</text><rect height="26" width="80.25" y="24" x="36.53125" class="er attributeBoxOdd"/><text style="dominant-baseline: middle; font-size: 10.2px;" transform="translate(41.53125,37)" y="0" x="0" id="text-entity-User-818c511a-4a32-5484-ba70-875d765a9175-attr-1-name" class="er entityLabel">id</text><rect height="26" width="25" y="24" x="116.78125" class="er attributeBoxOdd"/><text style="dominant-baseline: middle; font-size: 10.2px;" transform="translate(121.78125,37)" y="0" x="0" id="text-entity-User-818c511a-4a32-5484-ba70-875d765a9175-attr-1-comment" class="er entityLabel">🗝️</text><rect height="22.091796875" width="36.53125" y="50" x="0" class="er attributeBoxEven"/><text style="dominant-baseline: middle; font-size: 10.2px;" transform="translate(5,61.0458984375)" y="0" x="0" id="text-entity-User-818c511a-4a32-5484-ba70-875d765a9175-attr-2-type" class="er entityLabel">String</text><rect height="22.091796875" width="80.25" y="50" x="36.53125" class="er attributeBoxEven"/><text style="dominant-baseline: middle; font-size: 10.2px;" transform="translate(41.53125,61.0458984375)" y="0" x="0" id="text-entity-User-818c511a-4a32-5484-ba70-875d765a9175-attr-2-name" class="er entityLabel">username</text><rect height="22.091796875" width="25" y="50" x="116.78125" class="er attributeBoxEven"/><text style="dominant-baseline: middle; font-size: 10.2px;" transform="translate(121.78125,61.0458984375)" y="0" x="0" id="text-entity-User-818c511a-4a32-5484-ba70-875d765a9175-attr-2-comment" class="er entityLabel"/><rect height="22.091796875" width="36.53125" y="72.091796875" x="0" class="er attributeBoxOdd"/><text style="dominant-baseline: middle; font-size: 10.2px;" transform="translate(5,83.1376953125)" y="0" x="0" id="text-entity-User-818c511a-4a32-5484-ba70-875d765a9175-attr-3-type" class="er entityLabel">String</text><rect height="22.091796875" width="80.25" y="72.091796875" x="36.53125" class="er attributeBoxOdd"/><text style="dominant-baseline: middle; font-size: 10.2px;" transform="translate(41.53125,83.1376953125)" y="0" x="0" id="text-entity-User-818c511a-4a32-5484-ba70-875d765a9175-attr-3-name" class="er entityLabel">password</text><rect height="22.091796875" width="25" y="72.091796875" x="116.78125" class="er attributeBoxOdd"/><text style="dominant-baseline: middle; font-size: 10.2px;" transform="translate(121.78125,83.1376953125)" y="0" x="0" id="text-entity-User-818c511a-4a32-5484-ba70-875d765a9175-attr-3-comment" class="er entityLabel"/><rect height="22.091796875" width="36.53125" y="94.18359375" x="0" class="er attributeBoxEven"/><text style="dominant-baseline: middle; font-size: 10.2px;" transform="translate(5,105.2294921875)" y="0" x="0" id="text-entity-User-818c511a-4a32-5484-ba70-875d765a9175-attr-4-type" class="er entityLabel">String</text><rect height="22.091796875" width="80.25" y="94.18359375" x="36.53125" class="er attributeBoxEven"/><text style="dominant-baseline: middle; font-size: 10.2px;" transform="translate(41.53125,105.2294921875)" y="0" x="0" id="text-entity-User-818c511a-4a32-5484-ba70-875d765a9175-attr-4-name" class="er entityLabel">firstName</text><rect height="22.091796875" width="25" y="94.18359375" x="116.78125" class="er attributeBoxEven"/><text style="dominant-baseline: middle; font-size: 10.2px;" transform="translate(121.78125,105.2294921875)" y="0" x="0" id="text-entity-User-818c511a-4a32-5484-ba70-875d765a9175-attr-4-comment" class="er entityLabel"/><rect height="22.091796875" width="36.53125" y="116.275390625" x="0" class="er attributeBoxOdd"/><text style="dominant-baseline: middle; font-size: 10.2px;" transform="translate(5,127.3212890625)" y="0" x="0" id="text-entity-User-818c511a-4a32-5484-ba70-875d765a9175-attr-5-type" class="er entityLabel">String</text><rect height="22.091796875" width="80.25" y="116.275390625" x="36.53125" class="er attributeBoxOdd"/><text style="dominant-baseline: middle; font-size: 10.2px;" transform="translate(41.53125,127.3212890625)" y="0" x="0" id="text-entity-User-818c511a-4a32-5484-ba70-875d765a9175-attr-5-name" class="er entityLabel">lastName</text><rect height="22.091796875" width="25" y="116.275390625" x="116.78125" class="er attributeBoxOdd"/><text style="dominant-baseline: middle; font-size: 10.2px;" transform="translate(121.78125,127.3212890625)" y="0" x="0" id="text-entity-User-818c511a-4a32-5484-ba70-875d765a9175-attr-5-comment" class="er entityLabel"/><rect height="22.091796875" width="36.53125" y="138.3671875" x="0" class="er attributeBoxEven"/><text style="dominant-baseline: middle; font-size: 10.2px;" transform="translate(5,149.4130859375)" y="0" x="0" id="text-entity-User-818c511a-4a32-5484-ba70-875d765a9175-attr-6-type" class="er entityLabel">String</text><rect height="22.091796875" width="80.25" y="138.3671875" x="36.53125" class="er attributeBoxEven"/><text style="dominant-baseline: middle; font-size: 10.2px;" transform="translate(41.53125,149.4130859375)" y="0" x="0" id="text-entity-User-818c511a-4a32-5484-ba70-875d765a9175-attr-6-name" class="er entityLabel">email</text><rect height="22.091796875" width="25" y="138.3671875" x="116.78125" class="er attributeBoxEven"/><text style="dominant-baseline: middle; font-size: 10.2px;" transform="translate(121.78125,149.4130859375)" y="0" x="0" id="text-entity-User-818c511a-4a32-5484-ba70-875d765a9175-attr-6-comment" class="er entityLabel"/><rect height="22.091797828674316" width="36.53125" y="160.458984375" x="0" class="er attributeBoxOdd"/><text style="dominant-baseline: middle; font-size: 10.2px;" transform="translate(5,171.50488328933716)" y="0" x="0" id="text-entity-User-818c511a-4a32-5484-ba70-875d765a9175-attr-7-type" class="er entityLabel">Int</text><rect height="22.091797828674316" width="80.25" y="160.458984375" x="36.53125" class="er attributeBoxOdd"/><text style="dominant-baseline: middle; font-size: 10.2px;" transform="translate(41.53125,171.50488328933716)" y="0" x="0" id="text-entity-User-818c511a-4a32-5484-ba70-875d765a9175-attr-7-name" class="er entityLabel">rating_changed</text><rect height="22.091797828674316" width="25" y="160.458984375" x="116.78125" class="er attributeBoxOdd"/><text style="dominant-baseline: middle; font-size: 10.2px;" transform="translate(121.78125,171.50488328933716)" y="0" x="0" id="text-entity-User-818c511a-4a32-5484-ba70-875d765a9175-attr-7-comment" class="er entityLabel"/></g><g transform="translate(40.890625,302.55078125 )" id="entity-UserContests-f59bc556-2131-5faf-8adf-e18e4c021360"><rect height="75" width="100" y="0" x="0" class="er entityBox"/><text style="dominant-baseline: middle; text-anchor: middle; font-size: 12px;" transform="translate(50,37.5)" y="0" x="0" id="text-entity-UserContests-f59bc556-2131-5faf-8adf-e18e4c021360" class="er entityLabel">UserContests</text></g><g transform="translate(29.6328125,693.55078125 )" id="entity-Question-489e4f99-55a1-57b9-ae56-53457bd575f3"><rect height="138.3671875" width="122.515625" y="0" x="0" class="er entityBox"/><text style="dominant-baseline: middle; text-anchor: middle; font-size: 12px;" transform="translate(61.2578125,12)" y="0" x="0" id="text-entity-Question-489e4f99-55a1-57b9-ae56-53457bd575f3" class="er entityLabel">Question</text><rect height="26" width="36.53125" y="24" x="0" class="er attributeBoxOdd"/><text style="dominant-baseline: middle; font-size: 10.2px;" transform="translate(5,37)" y="0" x="0" id="text-entity-Question-489e4f99-55a1-57b9-ae56-53457bd575f3-attr-1-type" class="er entityLabel">Int</text><rect height="26" width="60.984375" y="24" x="36.53125" class="er attributeBoxOdd"/><text style="dominant-baseline: middle; font-size: 10.2px;" transform="translate(41.53125,37)" y="0" x="0" id="text-entity-Question-489e4f99-55a1-57b9-ae56-53457bd575f3-attr-1-name" class="er entityLabel">id</text><rect height="26" width="25" y="24" x="97.515625" class="er attributeBoxOdd"/><text style="dominant-baseline: middle; font-size: 10.2px;" transform="translate(102.515625,37)" y="0" x="0" id="text-entity-Question-489e4f99-55a1-57b9-ae56-53457bd575f3-attr-1-comment" class="er entityLabel">🗝️</text><rect height="22.091796875" width="36.53125" y="50" x="0" class="er attributeBoxEven"/><text style="dominant-baseline: middle; font-size: 10.2px;" transform="translate(5,61.0458984375)" y="0" x="0" id="text-entity-Question-489e4f99-55a1-57b9-ae56-53457bd575f3-attr-2-type" class="er entityLabel">String</text><rect height="22.091796875" width="60.984375" y="50" x="36.53125" class="er attributeBoxEven"/><text style="dominant-baseline: middle; font-size: 10.2px;" transform="translate(41.53125,61.0458984375)" y="0" x="0" id="text-entity-Question-489e4f99-55a1-57b9-ae56-53457bd575f3-attr-2-name" class="er entityLabel">title</text><rect height="22.091796875" width="25" y="50" x="97.515625" class="er attributeBoxEven"/><text style="dominant-baseline: middle; font-size: 10.2px;" transform="translate(102.515625,61.0458984375)" y="0" x="0" id="text-entity-Question-489e4f99-55a1-57b9-ae56-53457bd575f3-attr-2-comment" class="er entityLabel"/><rect height="22.091796875" width="36.53125" y="72.091796875" x="0" class="er attributeBoxOdd"/><text style="dominant-baseline: middle; font-size: 10.2px;" transform="translate(5,83.1376953125)" y="0" x="0" id="text-entity-Question-489e4f99-55a1-57b9-ae56-53457bd575f3-attr-3-type" class="er entityLabel">String</text><rect height="22.091796875" width="60.984375" y="72.091796875" x="36.53125" class="er attributeBoxOdd"/><text style="dominant-baseline: middle; font-size: 10.2px;" transform="translate(41.53125,83.1376953125)" y="0" x="0" id="text-entity-Question-489e4f99-55a1-57b9-ae56-53457bd575f3-attr-3-name" class="er entityLabel">description</text><rect height="22.091796875" width="25" y="72.091796875" x="97.515625" class="er attributeBoxOdd"/><text style="dominant-baseline: middle; font-size: 10.2px;" transform="translate(102.515625,83.1376953125)" y="0" x="0" id="text-entity-Question-489e4f99-55a1-57b9-ae56-53457bd575f3-attr-3-comment" class="er entityLabel"/><rect height="22.091796875" width="36.53125" y="94.18359375" x="0" class="er attributeBoxEven"/><text style="dominant-baseline: middle; font-size: 10.2px;" transform="translate(5,105.2294921875)" y="0" x="0" id="text-entity-Question-489e4f99-55a1-57b9-ae56-53457bd575f3-attr-4-type" class="er entityLabel">String</text><rect height="22.091796875" width="60.984375" y="94.18359375" x="36.53125" class="er attributeBoxEven"/><text style="dominant-baseline: middle; font-size: 10.2px;" transform="translate(41.53125,105.2294921875)" y="0" x="0" id="text-entity-Question-489e4f99-55a1-57b9-ae56-53457bd575f3-attr-4-name" class="er entityLabel">testCases</text><rect height="22.091796875" width="25" y="94.18359375" x="97.515625" class="er attributeBoxEven"/><text style="dominant-baseline: middle; font-size: 10.2px;" transform="translate(102.515625,105.2294921875)" y="0" x="0" id="text-entity-Question-489e4f99-55a1-57b9-ae56-53457bd575f3-attr-4-comment" class="er entityLabel"/><rect height="22.091796875" width="36.53125" y="116.275390625" x="0" class="er attributeBoxOdd"/><text style="dominant-baseline: middle; font-size: 10.2px;" transform="translate(5,127.3212890625)" y="0" x="0" id="text-entity-Question-489e4f99-55a1-57b9-ae56-53457bd575f3-attr-5-type" class="er entityLabel">String</text><rect height="22.091796875" width="60.984375" y="116.275390625" x="36.53125" class="er attributeBoxOdd"/><text style="dominant-baseline: middle; font-size: 10.2px;" transform="translate(41.53125,127.3212890625)" y="0" x="0" id="text-entity-Question-489e4f99-55a1-57b9-ae56-53457bd575f3-attr-5-name" class="er entityLabel">checker</text><rect height="22.091796875" width="25" y="116.275390625" x="97.515625" class="er attributeBoxOdd"/><text style="dominant-baseline: middle; font-size: 10.2px;" transform="translate(102.515625,127.3212890625)" y="0" x="0" id="text-entity-Question-489e4f99-55a1-57b9-ae56-53457bd575f3-attr-5-comment" class="er entityLabel"/></g><g transform="translate(22.6171875,477.55078125 )" id="entity-Contest-06be656a-f108-530e-8c6e-9b708ea8a593"><rect height="116" width="136.546875" y="0" x="0" class="er entityBox"/><text style="dominant-baseline: middle; text-anchor: middle; font-size: 12px;" transform="translate(68.2734375,12)" y="0" x="0" id="text-entity-Contest-06be656a-f108-530e-8c6e-9b708ea8a593" class="er entityLabel">Contest</text><rect height="26" width="53.671875" y="24" x="0" class="er attributeBoxOdd"/><text style="dominant-baseline: middle; font-size: 10.2px;" transform="translate(5,37)" y="0" x="0" id="text-entity-Contest-06be656a-f108-530e-8c6e-9b708ea8a593-attr-1-type" class="er entityLabel">Int</text><rect height="26" width="57.875" y="24" x="53.671875" class="er attributeBoxOdd"/><text style="dominant-baseline: middle; font-size: 10.2px;" transform="translate(58.671875,37)" y="0" x="0" id="text-entity-Contest-06be656a-f108-530e-8c6e-9b708ea8a593-attr-1-name" class="er entityLabel">id</text><rect height="26" width="25" y="24" x="111.546875" class="er attributeBoxOdd"/><text style="dominant-baseline: middle; font-size: 10.2px;" transform="translate(116.546875,37)" y="0" x="0" id="text-entity-Contest-06be656a-f108-530e-8c6e-9b708ea8a593-attr-1-comment" class="er entityLabel">🗝️</text><rect height="22" width="53.671875" y="50" x="0" class="er attributeBoxEven"/><text style="dominant-baseline: middle; font-size: 10.2px;" transform="translate(5,61)" y="0" x="0" id="text-entity-Contest-06be656a-f108-530e-8c6e-9b708ea8a593-attr-2-type" class="er entityLabel">Int</text><rect height="22" width="57.875" y="50" x="53.671875" class="er attributeBoxEven"/><text style="dominant-baseline: middle; font-size: 10.2px;" transform="translate(58.671875,61)" y="0" x="0" id="text-entity-Contest-06be656a-f108-530e-8c6e-9b708ea8a593-attr-2-name" class="er entityLabel">duration</text><rect height="22" width="25" y="50" x="111.546875" class="er attributeBoxEven"/><text style="dominant-baseline: middle; font-size: 10.2px;" transform="translate(116.546875,61)" y="0" x="0" id="text-entity-Contest-06be656a-f108-530e-8c6e-9b708ea8a593-attr-2-comment" class="er entityLabel"/><rect height="22" width="53.671875" y="72" x="0" class="er attributeBoxOdd"/><text style="dominant-baseline: middle; font-size: 10.2px;" transform="translate(5,83)" y="0" x="0" id="text-entity-Contest-06be656a-f108-530e-8c6e-9b708ea8a593-attr-3-type" class="er entityLabel">DateTime</text><rect height="22" width="57.875" y="72" x="53.671875" class="er attributeBoxOdd"/><text style="dominant-baseline: middle; font-size: 10.2px;" transform="translate(58.671875,83)" y="0" x="0" id="text-entity-Contest-06be656a-f108-530e-8c6e-9b708ea8a593-attr-3-name" class="er entityLabel">start_time</text><rect height="22" width="25" y="72" x="111.546875" class="er attributeBoxOdd"/><text style="dominant-baseline: middle; font-size: 10.2px;" transform="translate(116.546875,83)" y="0" x="0" id="text-entity-Contest-06be656a-f108-530e-8c6e-9b708ea8a593-attr-3-comment" class="er entityLabel"/><rect height="22" width="53.671875" y="94" x="0" class="er attributeBoxEven"/><text style="dominant-baseline: middle; font-size: 10.2px;" transform="translate(5,105)" y="0" x="0" id="text-entity-Contest-06be656a-f108-530e-8c6e-9b708ea8a593-attr-4-type" class="er entityLabel">DateTime</text><rect height="22" width="57.875" y="94" x="53.671875" class="er attributeBoxEven"/><text style="dominant-baseline: middle; font-size: 10.2px;" transform="translate(58.671875,105)" y="0" x="0" id="text-entity-Contest-06be656a-f108-530e-8c6e-9b708ea8a593-attr-4-name" class="er entityLabel">end_time</text><rect height="22" width="25" y="94" x="111.546875" class="er attributeBoxEven"/><text style="dominant-baseline: middle; font-size: 10.2px;" transform="translate(116.546875,105)" y="0" x="0" id="text-entity-Contest-06be656a-f108-530e-8c6e-9b708ea8a593-attr-4-comment" class="er entityLabel"/></g><g transform="translate(107.13671875,931.91796875 )" id="entity-SubmissionQuestion-7bc70e04-6740-549c-be67-2b1a8ceed1ff"><rect height="68" width="135.78125" y="0" x="0" class="er entityBox"/><text style="dominant-baseline: middle; text-anchor: middle; font-size: 12px;" transform="translate(67.890625,12)" y="0" x="0" id="text-entity-SubmissionQuestion-7bc70e04-6740-549c-be67-2b1a8ceed1ff" class="er entityLabel">SubmissionQuestion</text><rect height="22" width="73.6171875" y="24" x="0" class="er attributeBoxOdd"/><text style="dominant-baseline: middle; font-size: 10.2px;" transform="translate(5,35)" y="0" x="0" id="text-entity-SubmissionQuestion-7bc70e04-6740-549c-be67-2b1a8ceed1ff-attr-1-type" class="er entityLabel">Boolean</text><rect height="22" width="62.1640625" y="24" x="73.6171875" class="er attributeBoxOdd"/><text style="dominant-baseline: middle; font-size: 10.2px;" transform="translate(78.6171875,35)" y="0" x="0" id="text-entity-SubmissionQuestion-7bc70e04-6740-549c-be67-2b1a8ceed1ff-attr-1-name" class="er entityLabel">verdict</text><rect height="22" width="73.6171875" y="46" x="0" class="er attributeBoxEven"/><text style="dominant-baseline: middle; font-size: 10.2px;" transform="translate(5,57)" y="0" x="0" id="text-entity-SubmissionQuestion-7bc70e04-6740-549c-be67-2b1a8ceed1ff-attr-2-type" class="er entityLabel">DateTime</text><rect height="22" width="62.1640625" y="46" x="73.6171875" class="er attributeBoxEven"/><text style="dominant-baseline: middle; font-size: 10.2px;" transform="translate(78.6171875,57)" y="0" x="0" id="text-entity-SubmissionQuestion-7bc70e04-6740-549c-be67-2b1a8ceed1ff-attr-2-name" class="er entityLabel">time</text></g><rect height="14" width="117.1875" y="247.097900390625" x="-9.801734924316406" class="er relationshipLabelBox"/><text style="text-anchor: middle; dominant-baseline: middle; font-size: 12px;" y="254.097900390625" x="48.792015075683594" id="rel1" class="er relationshipLabel">contests_participated</text><rect height="14" width="62.484375" y="585.4466552734375" x="-124.48818969726562" class="er relationshipLabelBox"/><text style="text-anchor: middle; dominant-baseline: middle; font-size: 12px;" y="592.4466552734375" x="-93.24600219726562" id="rel2" class="er relationshipLabel">submissions</text><rect height="14.000015258789062" width="22.625" y="247.09806060791016" x="121.67646789550781" class="er relationshipLabelBox"/><text style="text-anchor: middle; dominant-baseline: middle; font-size: 12px;" y="254.0980682373047" x="132.9889678955078" id="rel3" class="er relationshipLabel">user</text><rect height="14" width="39.859375" y="419.6941833496094" x="29.63550567626953" class="er relationshipLabelBox"/><text style="text-anchor: middle; dominant-baseline: middle; font-size: 12px;" y="426.6941833496094" x="49.56519317626953" id="rel4" class="er relationshipLabel">contest</text><rect height="14" width="39.859375" y="636.2509765625" x="113.59976196289062" class="er relationshipLabelBox"/><text style="text-anchor: middle; dominant-baseline: middle; font-size: 12px;" y="643.2509765625" x="133.52944946289062" id="rel5" class="er relationshipLabel">contest</text><rect height="14" width="66.84375" y="881.09716796875" x="69.27116394042969" class="er relationshipLabelBox"/><text style="text-anchor: middle; dominant-baseline: middle; font-size: 12px;" y="888.09716796875" x="102.69303894042969" id="rel6" class="er relationshipLabel">submittedby</text><rect height="14" width="50.6875" y="636.251220703125" x="22.90878677368164" class="er relationshipLabelBox"/><text style="text-anchor: middle; dominant-baseline: middle; font-size: 12px;" y="643.251220703125" x="48.25253677368164" id="rel7" class="er relationshipLabel">questions</text><rect height="14" width="64.359375" y="419.69427490234375" x="100.03706359863281" class="er relationshipLabelBox"/><text style="text-anchor: middle; dominant-baseline: middle; font-size: 12px;" y="426.69427490234375" x="132.2167510986328" id="rel8" class="er relationshipLabel">participants</text><rect height="14" width="22.625" y="528.8755493164062" x="263.7145080566406" class="er relationshipLabelBox"/><text style="text-anchor: middle; dominant-baseline: middle; font-size: 12px;" y="535.8755493164062" x="275.0270080566406" id="rel9" class="er relationshipLabel">user</text><rect height="14" width="45.828125" y="842.8790283203125" x="262.36151123046875" class="er relationshipLabelBox"/><text style="text-anchor: middle; dominant-baseline: middle; font-size: 12px;" y="849.8790283203125" x="285.27557373046875" id="rel10" class="er relationshipLabel">question</text></svg>